<svg xmlns="http://www.w3.org/2000/svg" xmlns:xlink="http://www.w3.org/1999/xlink" viewBox="0 0 24 30" version="1.1" x="0px" y="0px"><title>user_046-users-accounts-profile-group</title><desc>Created with Sketch.</desc><g stroke="none" stroke-width="1" fill="none" fill-rule="evenodd"><g transform="translate(-285.000000, -237.000000)" fill="#000000"><g transform="translate(286.000000, 239.000000)"><path d="M13,1 C15.209139,1 17,2.790861 17,5 C17,7.209139 15.209139,9 13,9 C12.7238576,9 12.5,9.22385763 12.5,9.5 C12.5,9.77614237 12.7238576,10 13,10 C15.7614237,10 18,7.76142375 18,5 C18,2.23857625 15.7614237,0 13,0 C11.3075571,0 9.75830409,0.847828872 8.83707693,2.22964427 C8.68389876,2.45940732 8.74598306,2.76984252 8.97574611,2.92302069 C9.20550916,3.07619886 9.51594436,3.01411456 9.66912253,2.78435151 C10.4067918,1.67786792 11.6454721,1 13,1 Z"/><path d="M21,14.75 L21,16.5071869 C21,16.7730126 20.7728969,17 20.5000398,17 L17.5,17 C17.2238576,17 17,17.2238576 17,17.5 C17,17.7761424 17.2238576,18 17.5,18 L20.5000398,18 C21.3250675,18 22,17.3254116 22,16.5071869 L22,14.75 C22,11.6450513 18.332073,9 13,9 C12.7238576,9 12.5,9.22385763 12.5,9.5 C12.5,9.77614237 12.7238576,10 13,10 C17.837011,10 21,12.2809255 21,14.75 Z"/><path d="M1.4999602,20 L16.5000398,20 C17.3250675,20 18,19.3254116 18,18.5071869 L18,16.75 C18,13.6450513 14.332073,11 9,11 C3.66792697,11 0,13.6450513 0,16.75 L0,18.5071869 C0,19.3306046 0.677479666,20 1.4999602,20 Z M1,16.75 C1,14.2809255 4.16298903,12 9,12 C13.837011,12 17,14.2809255 17,16.75 L17,18.5071869 C17,18.7730126 16.7728969,19 16.5000398,19 L1.4999602,19 C1.22709505,19 1,18.7756149 1,18.5071869 L1,16.75 Z"/><path d="M14,7 C14,4.23857625 11.7614237,2 9,2 C6.23857625,2 4,4.23857625 4,7 C4,9.76142375 6.23857625,12 9,12 C11.7614237,12 14,9.76142375 14,7 Z M5,7 C5,4.790861 6.790861,3 9,3 C11.209139,3 13,4.790861 13,7 C13,9.209139 11.209139,11 9,11 C6.790861,11 5,9.209139 5,7 Z"/></g></g></g><text x="0" y="39" fill="#000000" font-size="5px" font-weight="bold" font-family="'Helvetica Neue', Helvetica, Arial-Unicode, Arial, Sans-serif">Created by Pham Thi Dieu Linh</text><text x="0" y="44" fill="#000000" font-size="5px" font-weight="bold" font-family="'Helvetica Neue', Helvetica, Arial-Unicode, Arial, Sans-serif">from the Noun Project</text></svg>